<svg width="137" height="137" viewBox="0 0 137 137" fill="none" xmlns="http://www.w3.org/2000/svg">
<rect width="137" height="137" rx="15.0549" fill="#65D570"/>
<path d="M23.2168 98.5217C26.0612 98.5217 28.3672 96.2159 28.3672 93.3713C28.3672 90.5268 26.0612 88.2209 23.2168 88.2209C20.3723 88.2209 18.0664 90.5268 18.0664 93.3713C18.0664 96.2159 20.3723 98.5217 23.2168 98.5217Z" fill="#FFD196" stroke="#23635E" stroke-width="4.51648" stroke-linecap="round" stroke-linejoin="round"/>
<path d="M115.924 43.6857V91.5531C115.924 92.6754 115.315 93.7091 114.334 94.2545L71.0711 118.289C70.1379 118.808 69.0027 118.808 68.0695 118.289L24.8064 94.2545C23.8254 93.7091 23.2169 92.6754 23.2169 91.5531L23.2168 43.6857C23.2168 42.5635 23.8253 41.5294 24.8063 40.9844L68.0695 16.9493C69.0027 16.4308 70.1379 16.4308 71.0711 16.9493L114.334 40.9844C115.315 41.5294 115.924 42.5635 115.924 43.6857Z" fill="#FFD196" stroke="#23635E" stroke-width="4.51648" stroke-linecap="round" stroke-linejoin="round"/>
<path d="M25.9375 43.3798L68.0684 66.786C69.0016 67.3041 70.1368 67.3041 71.07 66.786L113.347 43.2984" fill="#FFD196"/>
<path d="M25.9375 43.3798L68.0684 66.786C69.0016 67.3041 70.1368 67.3041 71.07 66.786L113.347 43.2984" stroke="#23635E" stroke-width="4.51648" stroke-linecap="round" stroke-linejoin="round"/>
<path d="M69.5713 113.973V67.6194Z" fill="#FFD196"/>
<path d="M69.5713 113.973V67.6194" stroke="#23635E" stroke-width="4.51648" stroke-linecap="round" stroke-linejoin="round"/>
</svg>
