<?xml version="1.0" encoding="UTF-8"?><svg id="Layer_2" xmlns="http://www.w3.org/2000/svg" viewBox="0 0 354.93 347.65"><defs><style>.cls-1{fill:#677e9d;}.cls-2{fill:#ffce93;}.cls-3{fill:#ff8f48;}</style></defs><g id="Layer_1-2"><rect class="cls-1" x=".08" width="320.81" height="320.81" rx="30" ry="30"/><path class="cls-2" d="m354.93,275.8v19.26c0,2.28-1.86,4.12-4.12,4.08l-14.65-.15-1.44-.02c-1.25-.02-2.43-.61-3.19-1.59l-3.05-3.95c-.76-1.01-1.95-1.59-3.23-1.59H0V29.38h173.17c2.26,0,4.08,1.82,4.08,4.08v89.73c0,2.24,1.82,4.08,4.08,4.08h11.56c1.04,0,2.05.4,2.81,1.12l61.04,57.8c.47.46,1.04.78,1.69.97l67.1,19.13c.66.19,1.27.55,1.77,1.04l15.43,15.43c.76.76,1.2,1.8,1.2,2.88v41.99c0,2.26,1.82,4.08,4.08,4.08h2.87c2.26,0,4.08,1.84,4.08,4.08Z"/><circle class="cls-3" cx="277.31" cy="299.99" r="47.66"/><path class="cls-3" d="m138.53,148.92v45.08c0,2.82,2.29,5.11,5.11,5.11h78.3c2.82,0,5.11-2.29,5.11-5.11v-7.9c0-1.35-.54-2.65-1.5-3.61l-36.98-36.98c-.95-.95-2.24-1.49-3.59-1.5l-41.31-.19c-2.83-.01-5.13,2.28-5.13,5.11Z"/><path class="cls-3" d="m345.18,230.89v18.49c0,2.26-1.83,4.1-4.1,4.1h-3.14c-1.73,0-3.27-1.08-3.85-2.7l-6.69-18.49c-.97-2.67,1.01-5.49,3.85-5.49h9.83c2.26,0,4.1,1.83,4.1,4.1Z"/><path class="cls-3" d="m176.79,120.52v2.59c0,1.25-1.02,2.27-2.27,2.27h-73.85c-1.25,0-2.27,1.02-2.27,2.27v161.87c0,1.25-1.02,2.27-2.27,2.27h-3.15c-1.25,0-2.27-1.02-2.27-2.27V120.52c0-1.25,1.02-2.27,2.27-2.27h81.54c1.25,0,2.27,1.02,2.27,2.27Z"/></g></svg>