<?xml version="1.0" encoding="UTF-8"?><svg id="Layer_2" xmlns="http://www.w3.org/2000/svg" viewBox="0 0 332.98 367.71"><defs><style>.cls-1{fill:#677e9d;}.cls-2{fill:#fff;}.cls-3{fill:#ffce93;}.cls-4{fill:#ff8f48;}.cls-5{fill:#9d8060;}.cls-6{fill:#133532;}.cls-7{fill:#a2a2a2;}.cls-8{fill:#2b7770;}</style></defs><g id="Layer_1-2"><rect class="cls-8" y="45.94" width="320.81" height="320.81" rx="30" ry="30"/><path class="cls-2" d="m332.93,137.22c-.29,3.81-1.78,7.24-4.1,9.95l-.39,5.1c-.36,4.74-4.53,8.33-9.27,7.97l-36.01-2.73c-3.94,2.51-7.61,4.55-9.23,5.21-1.57.64-4.58,5.17-7.95,10.59.57.86,1,1.71,1.25,2.55.75,2.51-8.47,16.13-21.46,33.66.94,2.64,1.62,5.35,1.93,8.06,1.71,15.33-.71,59.65-3.94,86.25v.02c.41,2.71-.2,4.47-.2,4.47,0,0,.8,32.84,3.19,59.4H84.56c.09-2.25.14-4.3.14-6.08,0-12.62-1.02-38.6-2.32-65.94-8.25-16.92-14.85-31.64-17.52-39.33-4.96-14.28-9.72-29.11-12.78-38.83-2.91-9.25-.55-19.5,6.52-26.15.07-.07.14-.12.2-.2,7.02-6.47,24.19-12.94,29.33-14.71.25-.09.48-.14.7-.2.07-.04.14-.05.21-.09h.02c2.66-11.39,7.58-33.67,7.58-43.3,0-13.23-4.49-28.84,0-67.74.55-4.81,1.37-9.22,2.37-13.26h129.71c.46,3.49.7,6.81.62,9.54-.25,9.41-10.18,16.03-11.71,23.53-1.51,7.52-1.51,8.79-1.51,8.79,0,0-2.64-7.15-3.94-13.99-.04.16-.07.32-.09.46-1.39,8.16.2,13.57,0,24.73-.2,11.18-15.01,46.78-20.34,50.06-.77.46-2.92.64-5.9.48l-.37,2.53c-.29,2.34-.46,4.26-.46,5.22s.25,1.91.62,2.83c2.83.5,8.5,1.52,14.37,2.76,6.22,1.32,16.1,1.03,25.08,10.7l21.16-20.73s1.18.57,2.96,1.55c1.14-1.46,2.09-2.89,2.57-4.08.3-.73.52-1.71.66-2.91-1.91-1.73-3.03-4.3-2.82-7.04l1.3-17.26c-.03-.2-.07-.39-.11-.57-1.25-6.31.12-9.77.89-9.88l.18-2.37c.36-4.74,4.53-8.33,9.29-7.97l20.48,1.55-14.65-1.12.61-8.04,15.63,1.18-.61,8.06,40.13,3.03c4.74.36,8.33,4.53,7.97,9.27l-.36,4.6c1.89,3.01,2.85,6.61,2.57,10.43Z"/><path class="cls-4" d="m163.73.6s-.04.23-.12.68c-.34,1.87-1.35,7.56-2.76,15.42-1.71,9.5-4.01,22.21-6.35,35.19-2.89,15.9-5.85,32.23-7.93,43.69-.36,1.91-.68,3.67-.98,5.29-.75,4.01-1.55,8.98-2.39,14.51-1.05,6.81-2.14,14.51-3.21,22.39-1.34,9.95-2.66,20.2-3.8,29.4-.32,2.5-.62,4.92-.91,7.22-1.73,14.17-2.92,24.39-2.92,24.39h-50.54l5.54-15.6s.68-2.71,1.68-6.92v-.07h.02c2.66-11.39,7.58-33.67,7.58-43.3,0-13.23-4.49-28.84,0-67.74.55-4.81,1.37-9.22,2.37-13.26,7.17-28.74,24.46-39.5,32.98-46.46,9.73-7.93,31.75-4.83,31.75-4.83Z"/><path class="cls-1" d="m330.72,122.19l-.36,4.6-1.53,20.38-.39,5.1c-.36,4.74-4.53,8.33-9.27,7.97l-36.01-2.73-25.58-1.93c-2-.14-3.78-.96-5.15-2.23-1.91-1.73-3.03-4.3-2.82-7.04l1.3-17.26.79-10.45.18-2.37c.36-4.74,4.53-8.33,9.29-7.97l20.48,1.55.98.07,40.13,3.03c4.74.36,8.33,4.53,7.97,9.27Z"/><circle class="cls-7" cx="311.83" cy="135.64" r="17.33"/><path class="cls-6" d="m332.93,137.22c-.29,3.81-1.78,7.24-4.1,9.95-3.46,4.06-8.75,6.47-14.49,6.04-.62-.05-1.23-.12-1.84-.25-8.61-1.57-14.81-9.43-14.14-18.34.66-8.88,7.92-15.69,16.62-16.01.64-.04,1.32-.02,1.98.04,5.72.43,10.61,3.6,13.41,8.15,1.89,3.01,2.85,6.61,2.57,10.43Z"/><polygon class="cls-4" points="283.23 101.84 282.62 109.89 281.64 109.82 266.99 108.7 267.59 100.66 283.23 101.84"/><path class="cls-3" d="m297.43,145.3c-.36.89-.86,1.73-1.52,2.48-2.44,2.78-7.84,6.63-12.76,9.73-3.94,2.51-7.61,4.55-9.23,5.21-1.57.64-4.58,5.17-7.95,10.59-4.47,7.2-9.57,15.99-12.73,19.38-4.9,5.28-7.47,5.49-12.85,5.99-.69.07-1.43.14-2.23.23-.96.11-1.82.16-2.66.16-7.88,0-9.86-4.62-11-11.93-.39-2.46.21-4.51,1.3-6.2.07-.12.14-.25.21-.36,2.14-3.07,5.83-4.99,8.02-6.36,3.44-2.19,6.4-4.46,6.4-4.46,0,0,5.29-4.92,8.75-9.41,1.14-1.46,2.09-2.89,2.57-4.08.3-.73.52-1.71.66-2.91.8-6.44-.43-18.49-1.52-24.3-.03-.2-.07-.39-.11-.57-1.25-6.31.12-9.77.89-9.88h.07c.71.12,5.63,19.43,5.63,19.43,0,0,8.33-2.01,11.82-3.98,3.49-1.98,6.58-4.17,9.18-5.95,2.6-1.8,4.87-2.37,10.32-3.69,3.85-.94,5.94,2.07,7.06,4.64.5,1.09.82,2.1,1.02,2.71.57,1.76,2.73,8.49.64,13.53Z"/><path class="cls-6" d="m235.45,295.29c-.77,12.21-1.66,24.4-2.58,35.9-1.07,13.5-2.18,26.03-3.19,36.51H84.56c.09-2.25.14-4.3.14-6.08,0-12.62-1.02-38.6-2.32-65.94-1.93-40.22-4.49-83.43-5.42-91.7-1.53-13.91-4.37-11.84,1.82-19.31,2.51-3.07,4.69-6.33,10.04-8.4.07-.04.14-.05.21-.09h.02c.45-.16.89-.32,1.39-.48,9.04-2.8,19.32-4.47,24.12-5.83,2.48-.7,5.99-1.27,10-1.73h.02c3.6-.41,7.58-.73,11.61-.98,12.71-.78,25.76-.82,27.54-.53,1.94.3,7.61.02,12.41-.3,4.12-.29,7.61-.59,7.61-.59,0,0,.07.02.2.04.29.05.87.14,1.68.29,2.83.5,8.5,1.52,14.37,2.76,6.22,1.32,16.1,1.03,25.08,10.7.32.34.64.68.94,1.05.7.78,1.37,1.66,2.05,2.59,0,.02.02.04.04.05,2.01,2.76,3.94,6.11,5.74,10.21.64,1.44,1.19,3.35,1.66,5.63,1.07,5.26,1.71,12.6,2.01,21.41v.02c.7,20-.37,47.46-2.07,74.8Z"/><path class="cls-6" d="m177.35,367.71h-55.85c-11.96-18.88-27.24-47.7-39.11-72.02-8.25-16.92-14.85-31.64-17.52-39.33-4.96-14.28-9.72-29.11-12.78-38.83-2.91-9.25-.55-19.5,6.52-26.15.07-.07.14-.12.2-.2,7.02-6.47,24.19-12.94,29.33-14.71.25-.09.48-.14.7-.2.07,0,.14-.02.21-.02,3.07-.29.11,6.4,6.22,22.52.91,2.37,2,4.96,3.35,7.75,5.44,11.32,17.61,38.51,30.73,66.76,6.08,13.12,12.37,26.49,18.25,38.58,7.68,15.71,14.69,29.27,19.77,37.49,4.14,6.69,7.47,12.84,9.98,18.34Z"/><path class="cls-6" d="m243.74,303.82v.02c-.95,7.75-1.94,13.99-2.94,17.58-1.68,6.08-4.55,8.93-7.93,9.79-5.51,1.39-12.35-2.53-17.63-6.63-1.59-1.23-2.67-5.51-3.42-11.78-1.6-13.53-1.53-36.37-1.05-57.8.5-22.32,1.44-43.14,1.44-50.34,0-5.83-.09-9.72-.03-12.48.09-5.46.69-6.67,3.62-10.21,4.39-5.37,7.7-3.17,7.7-3.17,0,0,.45.39,1.21,1.11.32.29.7.64,1.11,1.05.64.61,1.41,1.37,2.26,2.23,0,.02.02.04.04.05,3.46,3.57,8.29,9.04,12.28,15.46,2.12,3.39,4.03,7.04,5.37,10.84.94,2.64,1.62,5.35,1.93,8.06,1.71,15.33-.71,59.65-3.94,86.25Z"/><path class="cls-6" d="m246.73,367.71h-32.34c-2.25-17.67-4.19-34.9-3.94-39.25.27-4.51.12-10.11,1.35-15.67.8-3.6,2.16-7.17,4.58-10.41,4.15-5.58,12.87-7.9,19.06-7.08,2.98.37,5.37,1.48,6.4,3.26,1.12,1.96,1.68,3.74,1.89,5.26v.02c.41,2.71-.2,4.47-.2,4.47,0,0,.8,32.84,3.19,59.4Z"/><path class="cls-6" d="m245.75,209.51c-2.62,3.51-5.37,7.18-8.24,10.96v.02c-8.45,11.12-17.79,23.12-26.76,34.49-21.3,26.99-40.47,50.47-40.47,50.47,0,0-11.2,4.56-22.69,6.42-11.07,1.76-22.44,1-24.4-8.81-3.99-20.02-2.53-21.27-2.53-21.27l8.68-8.5,82.82-81.13,12.53-12.28.37-.36,21.16-20.73s1.18.57,2.96,1.55c4.6,2.5,13.3,7.72,16.78,12.96.57.86,1,1.71,1.25,2.55.75,2.51-8.47,16.13-21.46,33.66Z"/><path class="cls-3" d="m188.8,170.97s-19.16,10.25-37.97,7.27c-6.42-1.02-11.55-2.42-15.55-3.85-7.72-2.76-11.12-5.56-11.12-5.56,0,0,.16-.23.41-.68h.02c1.52-2.51,6.74-11.62,7.54-20.04.62-6.38.84-20.68.91-29.99.05-5.12.05-8.72.05-8.72l10.11,5.97,44.53,26.29s-.55,3.58-1.16,7.9c-.27,1.91-.55,3.94-.78,5.88-.12.87-.23,1.75-.32,2.55-.29,2.34-.46,4.26-.46,5.22s.25,1.91.62,2.83c1.07,2.67,3.17,4.9,3.17,4.9Z"/><path class="cls-5" d="m186.71,149.61l-.87,5.86-.37,2.53-.73,4.88s0,1.55-.78,2.89c-.94,1.62-3.07,2.92-7.81.55-1.62-.8-3.55-2.05-5.83-3.83-17.27-13.55-24.99-20-28.13-22.73-.02-.02-.04-.02-.04-.04-.86-.73-1.35-1.19-1.64-1.44-.09-.07-.16-.14-.25-.23l46.31,11.52.14.04Z"/><path class="cls-3" d="m223.08,51.89c-1.44,9.91-9.55,21.66-10.91,27.86-.04.16-.07.32-.09.46-1.39,8.16.2,13.57,0,24.73-.2,11.18-15.01,46.78-20.34,50.06-.77.46-2.92.64-5.9.48-.02,0-.04,0-.05-.02-6.4-.32-16.51-2.12-24.42-5.65-7.61-3.4-14.74-6.54-19.18-10.04-.02-.02-.04-.02-.04-.04-.86-.73-1.35-1.19-1.64-1.44-.09-.07-.16-.14-.25-.23-.09-.09-.18-.18-.27-.29-1.16-1.25-1.94-2.55-2.3-3.92-.77-2.96-2.78-9.63-4.65-15.72-2.03-6.61-3.92-12.59-3.92-12.59,0,0-2.19,2.98-4.8,1.59-2.58-1.39-1.59-.2-4.78-9.57-3.19-9.38-7.99-33.3-2.39-37.9.52-.43,1.07-.8,1.62-1.11,5.29-2.99,11.41-.77,11.41-.77,0,0,1.25-2.34,3.32-5.9,5.78-10.09,18.06-30,27.35-35.19.27-.14.52-.29.78-.41,12.57-5.99,46.53,9.73,46.53,9.73,0,0,6.31,5.72,13.3,16.29,1.8,2.73,2.14,6.03,1.62,9.57Z"/><path class="cls-4" d="m229.34,61.42c-.25,9.41-10.18,16.03-11.71,23.53-1.51,7.52-1.51,8.79-1.51,8.79,0,0-2.64-7.15-3.94-13.99-.7-3.57-1-7.06-.39-9.41,1.48-5.72,1.37-9.86-.48-18.45-.36-1.71-.78-3.6-1.3-5.72-3.05-12.73-7.43-11.85-7.43-11.85l-2.19-3.46-2.83,3.87s-15.28,2.03-25.19,13.99c-.94,1.14-1.82,2.19-2.64,3.17-7.84,9.43-10.5,13.1-14.42,27.61-1.76,6.56-5.24,11.98-8.72,16.08-5.05,5.92-10.11,9.11-10.11,9.11,0,0,6.1-16.54,4.33-22.91-1.78-6.36-7.9-11.96-10.95-13.74-2.3-1.34-8.33-5.83-11.07-9.48-.93-1.21-1.46-2.34-1.41-3.23.05-.57.34-1.76.87-3.44,2.78-8.98,12.1-31.57,24.32-43.12,4.99-4.72,12.73-6.86,21.05-7.49,15.88-1.18,33.82,3.21,38.51,5.7,7.11,3.81,8.9,9.16,8.9,9.16,0,0,5.1,8.13,10.18,13.73,3.62,3.98,6.35,13.48,7.52,22.02.46,3.49.7,6.81.62,9.54Z"/></g></svg>