<?xml version="1.0" encoding="UTF-8"?><svg id="Layer_2" xmlns="http://www.w3.org/2000/svg" viewBox="0 0 335.42 366.63"><defs><style>.cls-1{fill:#677e9d;}.cls-2{fill:#65d270;}.cls-3{fill:#fff;}.cls-4{fill:#ffce93;}.cls-5{fill:#ff8585;}.cls-6{fill:#a2a2a2;}</style></defs><g id="Layer_1-2"><rect class="cls-6" y="44.86" width="320.81" height="320.81" rx="30" ry="30"/><path class="cls-3" d="m335.42,326.95c0,6.64-6.82,19.1-11.26,19.43s-15.01-3.58-18.59-5.64c-2.67-1.52-7.44-2.58-12.54-3.22l.05,1s-34.16,4.22-63.78,7.73c1.06,6.71,2.09,13.82,2.99,20.37h-31.78c-.97-4.99-1.99-10.58-2.97-16.59-.07,0-.12.02-.2.04.25,5.62.48,11.2.7,16.55h-122.98c1.04-11.17,1.97-24.11,2.26-36.44.34-14.62.2-37.1.04-60.45-9.13-25.5-20.42-58.13-24.2-69.27-5.82-17.13,4.29-31.82,18.43-38.55,6.89-3.28,11.99-4.38,15.41-4.65,2.33-1.47,5.06-2.06,8.25-2.36,1.99-.18,5.33-.38,9.52-.55-2.54-1.84-1.36-3.38-1.54-6.37-.23-4.35.12-7.69,2.61-10.06,2.49-2.34,6.34-7.07,6.34-7.07,0,0-1.38,0-3.11-5.58-1.74-5.58,3.11-10.67,3.11-10.67,0,0,.32-.16.91-.36-1.11-2.63-2.09-5.8-2.86-8.52-.12.43-.25.86-.41,1.32-2.49,7.41-5.66,15.64-4.81,22.19.86,6.57-2.11,9.95-2.11,9.95,0,0,0-5.71-1.68-10.79-1.7-5.06,5.92-16.91,5.92-23.03,0-1.99-.68-4.01-1.65-6.08-.52,1.88-10.65-4.83-18.97-11.24-8.34-6.41-10.5-12.42-10.9-27.42-.14-5.48-.09-8.68.3-11.04h132.02c-.09,2.77-.48,5.17-1.27,6.94-4.63,10.36-12.46,23.89-12.04,29.17l.43,5.3s-1.09-2.43-1.72-8.14c-1.66,9.05-3.47,17.97-4.8,21.33-2.43,6.21-12.15,19.01-19.11,25.45,1.38,2,1.07,4.15.61,6.39-.72,3.36-3.88,5.53-4.08,5.67.16,0,1.66.09,3.67,3.58,2.09,3.69-1.47,7.48-1.47,7.48,0,0,.55.73,1.49,1.95,1.5.48,3.38,1.11,5.73,1.88,4.2,1.38,7.12,2.76,9.32,4.64,0,0,23.93,6.19,28.53,21.19,4.58,15,7.03,107.41,6.12,113.23-.16.95-.79,2.04-1.77,3.13,1.57,3.33,3.27,8.05,4.9,13.71h69.38l.09,2.04,12.62-2.56s5.8-7.36,6.14-13.83c.34-6.48,3.24-12.44,5.64-10.22,2.38,2.22,4.6,10.06,4.08,15.18-.45,4.6-2.85,7.55-3.31,8.11.39-.2,2.26-.81,9.11.77,8.02,1.86,9.22,8.34,9.22,15Z"/><path class="cls-4" d="m335.42,326.95c0,6.64-6.82,19.1-11.26,19.43s-15.01-3.58-18.59-5.64c-2.67-1.52-7.44-2.58-12.54-3.22-1.72-.21-3.47-.39-5.19-.52-6.82-.52-13.46-10.06-11.94-14.67,1.54-4.6,14.5-7.5,14.5-7.5l1.54-.32,12.62-2.56s5.8-7.36,6.14-13.83c.34-6.48,3.24-12.44,5.64-10.22,2.38,2.22,4.6,10.06,4.08,15.18-.46,4.78-3.04,7.78-3.36,8.14.21-.14,1.84-.95,9.16.73,8.02,1.86,9.22,8.34,9.22,15Z"/><path class="cls-5" d="m197.34,350.08c.25,5.62.48,11.2.7,16.55h-122.98c1.04-11.17,1.97-24.11,2.26-36.44.34-14.62.2-37.1.04-60.45-.18-27.06-.41-55.3-.04-73.96.52-25.11,3.65-34.72,9.68-38.51,2.33-1.47,5.06-2.06,8.25-2.36,1.99-.18,5.33-.38,9.52-.55,19.97-.86,58.93-1.59,58.93-1.59l5.94,1.95c1.5.48,3.38,1.11,5.73,1.88,4.2,1.38,7.12,2.76,9.32,4.64,3.9,3.31,5.57,8.21,8.2,17.54,4.13,14.62,10.61,45.33,10.97,60.38.36,15.05-8.61,34.41-8.61,53.06,0,1.7.04,3.95.11,6.66.02.82.05,1.7.07,2.59v.02c.09,3.22.21,6.94.38,11.01.39,10.4.93,23.09,1.47,35.77v.07c.04.59.05,1.18.07,1.75Z"/><path class="cls-5" d="m167.63,357.34c-.48,1.02-1.27,1.58-2.17,1.95-4.28,1.84-23.87,6.42-37.03-6.12-13.15-12.54-33.66-38.24-39.78-52.94-2.15-5.14-6.42-16.79-11.31-30.49-9.13-25.5-20.42-58.13-24.2-69.27-5.82-17.13,4.29-31.82,18.43-38.55,6.89-3.28,11.99-4.38,15.41-4.65,3.6-.29,5.33.36,5.33.36,0,0-3.36,3.06-5.51,7.05-2.13,3.97.93,28.45,11.63,44.67,10.72,16.21,25.7,56,49.57,99.16.75,1.36,1.49,2.68,2.18,3.97,16.93,31.07,19.24,41.12,17.43,44.86Z"/><path class="cls-5" d="m293.08,338.53s-34.16,4.22-63.78,7.73c-9.34,1.09-18.22,2.13-25.45,2.93-2.2.25-4.31.54-6.32.84-.07,0-.12.02-.2.04-13.46,2.08-22.62,5.4-29.71,7.27-6.21,1.66-10.83,2.2-15.32-.18-10.42-5.51-16.23-44.69-16.23-44.69h155.76l.09,2.04,1.09,23.01.05,1Z"/><path class="cls-5" d="m219.33,295.64c-.16.95-.79,2.04-1.77,3.13-4.98,5.6-18.81,11.63-22.14,2.7v-.02c-.16-.45-.32-.97-.47-1.59v-.02c-.86-3.67-1.4-10.34-1.79-18.59-1.06-23.01-.8-58.27-2.09-75,0-.05-.02-.11-.02-.16v-.09c-.07-.77-.13-1.49-.2-2.17-2.13-21.73-6.17-42.61-6.17-42.61,0,0,23.93,6.19,28.53,21.19,4.58,15,7.03,107.41,6.12,113.23Z"/><path class="cls-5" d="m232.29,366.63h-31.78c-.97-4.99-1.99-10.58-2.97-16.59-.07-.57-.18-1.15-.27-1.72v-.07c-1.25-7.89-2.43-16.45-3.35-25.38-.41-3.95-.59-7.41-.59-10.4-.02-5.71.63-9.77,1.63-12.62v-.02c.13-.36.25-.68.39-.98,3.6-8.54,10.81-4.44,10.81-4.44,0,0,4.29-3.06,7.8-.98,1.02.61,2.26,2.47,3.6,5.33,1.57,3.33,3.27,8.05,4.9,13.71,1.77,6.17,3.47,13.49,4.81,21.42.64,3.79,1.34,8,2.02,12.37,1.06,6.71,2.09,13.82,2.99,20.37Z"/><path class="cls-1" d="m193.17,281.25c-.8,3.13-1.45,4.81-1.45,4.81l-5.39.21-1.65,9.86h-20.97l.89-21.28s1.13-49.07-1.11-67.43c-2.26-18.38-22.67-46.21-22.67-46.21,0,0-19.6-.47-29.78-4.03-3.19-1.13-5.14-2.02-6.28-2.85-2.54-1.84-1.36-3.38-1.54-6.37-.23-4.35.12-7.69,2.61-10.06,2.49-2.34,6.34-7.07,6.34-7.07,0,0-1.38,0-3.11-5.58-1.74-5.58,3.11-10.67,3.11-10.67,0,0,.32-.16.91-.36,1.52-.5,4.9-1.18,9.31.36,6.1,2.15,37.12,9.02,42.91,11.85,2.06,1.02,3.35,2.08,4.12,3.19,1.38,2,1.07,4.15.61,6.39-.72,3.36-3.88,5.53-4.08,5.67.16,0,1.66.09,3.67,3.58,2.09,3.69-1.47,7.48-1.47,7.48,0,0,.55.73,1.49,1.95,2.94,3.79,9.54,12.22,13.8,16.64,3.36,3.51,5.6,17.81,7.62,34.65v.09c0,.05.02.11.02.16,1.34,11.06,2.58,23.21,4.01,34.11,2.51,19.18-.11,33.79-1.92,40.89Z"/><path class="cls-4" d="m197.37,58.86s-1.88,12.11-4.04,24c-1.66,9.05-3.47,17.97-4.8,21.33-2.43,6.21-12.15,19.01-19.11,25.45-1.72,1.61-3.26,2.81-4.49,3.44-6.23,3.22-13.6,5.48-21.15,2.27-7.55-3.22-23.6-12.85-27.58-16.05-1.09-.88-2.15-2.77-3.11-5.05-1.11-2.63-2.09-5.8-2.86-8.52-.98-3.49-1.57-6.26-1.57-6.26,0,0-3.69-4.47-6.71-10.2,0-.02-.02-.04-.04-.07-1.27-2.42-2.42-5.06-3.11-7.7-.02-.02-.02-.05-.02-.09-.34-1.27-.57-2.56-.64-3.79v-.05c-.09-1.49.04-2.92.43-4.24.41-1.38,1.47-3.4,3.01-5.85,2.95-4.78,7.69-11.24,12.81-17.88,11.52-14.92,25.05-30.78,25.05-30.78h51.13l5.24,30.78,1.57,9.27Z"/><path class="cls-2" d="m207.93,49.59c-.09,2.77-.48,5.17-1.27,6.94-4.63,10.36-12.46,23.89-12.04,29.17l.43,5.3s-1.09-2.43-1.72-8.14c-.34-3.02-.54-6.96-.39-11.94.27-9.38,1.25-15.96.97-21.33-.14-2.88-.64-5.42-1.83-7.84-3.36-6.98-6.35-5.08-7.39-9.09-1.06-4.03,0-6.76,0-6.76l-8.66.21s-20.92,1.27-31.28,14.37c-1.79,2.25-3.52,5.42-5.15,9.11-7.93,17.75-13.87,47.75-13.87,47.75,0,0-1.49-13.1-9.31-21.13-7.82-8.04-6.12-9.09-11.83-7.61-1.83.47-3.22,1.65-4.08,3.33-.7,1.38-1.04,3.1-.97,5.06.11,3.15,1.31,6.96,3.78,11.04,5.55,9.13,8.61,11.36,6.91,17.7-.12.43-.25.86-.41,1.32-2.49,7.41-5.66,15.64-4.81,22.19.86,6.57-2.11,9.95-2.11,9.95,0,0,0-5.71-1.68-10.79-1.7-5.06,5.92-16.91,5.92-23.03,0-1.99-.68-4.01-1.65-6.08-2-4.33-5.23-8.86-5.96-13.58-.21-1.36-.48-2.77-.73-4.21-.02-.02-.02-.05-.02-.09-.23-1.25-.46-2.51-.64-3.79v-.05c-.7-4.65-.84-9.38,1.4-13.62,1.99-3.74,1.38-8.64,1.31-14.35-.07-4.62.21-9.77,2.49-15.25.98-2.38,1.75-4.21,2.34-5.62,2.51-5.82,2.09-4.31,2.09-4.31l21.13-18.38-1.49,1.68s12.26-5.28,23.05-7.18c10.77-1.91,37.62,1.47,44.6,7.39l6.98,5.92s6.39,22.26,5.91,35.74Z"/><path class="cls-2" d="m99.32,78.69c-.29,2.77,1.04,6.87,2.58,10.5.02.04.04.05.04.07,1.88,4.4,4.04,8.14,4.04,8.14l-.5,1.88c-.52,1.88-10.65-4.83-18.97-11.24-8.34-6.41-10.5-12.42-10.9-27.42-.14-5.48-.09-8.68.3-11.04.68-4.12,2.4-5.65,5.98-12.15,5.64-10.25,5.14-10.25,15.25-10.9,3.61-.23,6.42.79,8.52,2.18,3.79,2.52,5.33,6.28,5.33,6.28l-4.31,14.58-3.58,12.06s-.73,2.52-1.54,5.82c-.36,1.4-.72,2.92-1.06,4.46-.38,1.74-.72,3.49-.97,5.06-.09.61-.16,1.16-.21,1.7Z"/></g></svg>