<?xml version="1.0" encoding="UTF-8"?><svg id="Layer_2" xmlns="http://www.w3.org/2000/svg" viewBox="0 0 337.1 370.75"><defs><style>.cls-1{fill:#f7c231;}.cls-2{fill:#051a22;}.cls-3{fill:#677e9d;}.cls-4{fill:#65d270;}.cls-5{fill:#ffce93;}.cls-6{fill:#ff8585;}.cls-7{fill:#9d8060;}.cls-8{fill:#133532;}</style></defs><g id="Layer_1-2"><rect class="cls-6" y="49.94" width="320.81" height="320.81" rx="30" ry="30"/><polygon class="cls-5" points="100.64 106.54 93.46 174.03 154.13 183.85 149.1 149.62 100.64 106.54"/><path class="cls-3" d="m198.72,367.82c.03.89.07,1.79.08,2.72H66.34v-38.22c-6.15-9.89-12.35-19.9-18.17-29.38-.69-10.61-1.12-20.21-1.06-27.61.23-29.95,4.53-82.65,10.32-90.51.2-.27.4-.49.6-.65,1.63-1.29,4.69-3.02,8.3-4.86,9.87-5.03,23.85-10.88,23.85-10.88,0,0,1.41,1.24,3.55,2.97,1.24,1.01,2.73,2.18,4.37,3.39,2.75,2.01,5.87,4.11,8.72,5.53,3.4,1.69,11.85,1.51,20.68.4,1.31-.15,2.63-.34,3.96-.54,3.44-.52,6.82-1.17,9.89-1.86,5.05-1.16,9.22-2.46,11.28-3.67.05-.03.08-.05.13-.07,1.37-.8,2.55-1.42,3.59-1.89,4.22-1.89,6.47-1.26,12.05.6,5.63,1.88,9.13,4.01,17.45,13.93,2.04,2.45,4.39,5.36,7.12,8.87,13.74,17.65,4.17,103.39,4.44,124.49v.35c.02,1.27.07,3.12.13,5.45.08,3.62.23,8.43.39,14.16.22,7.68.5,17,.77,27.29Z"/><path class="cls-3" d="m138.68,370.54h-48.36c-7.17-11.36-15.54-24.67-23.99-38.22-6.15-9.89-12.35-19.9-18.17-29.38-14.68-23.97-26.9-44.55-29.7-51.19-8.01-18.96-5.55-36.51,4.93-44.8,8.78-6.97,24.19-18.71,34.04-22.13,1.91-.67,3.59-1.02,5-.97.85.03,2.2,1.61,3.91,4.46,14.47,23.94,55.8,137.36,65.64,162.39.72,1.83,1.27,3.18,1.63,4.01,1.98,4.46,3.87,10.06,5.08,15.84Z"/><path class="cls-3" d="m280.85,315.91c-.94,1.37-3.03,3.15-5.5,4.94-5.85,4.29-13.86,8.78-13.86,8.78,0,0-16.75,10.24-38.4,23.4-7.68,4.68-15.97,9.71-24.37,14.78-1.46.87-2.92,1.76-4.37,2.65-.03.02-.07.05-.12.07h-88.58c.52-3.6,1.47-6.45,2.95-7.88,1.27-1.22,10.24-5.73,23.38-11.97,15.74-7.46,37.46-17.42,59.05-27.22,2.13-.97,4.26-1.93,6.4-2.9,8-3.62,15.91-7.19,23.38-10.54,27.87-12.55,49.97-22.38,49.97-22.38,0,0,.77,1.37,1.91,3.54,1.89,3.62,4.81,9.44,6.7,14.6.4,1.06.75,2.08,1.04,3.05.96,3.18,1.29,5.82.42,7.07Z"/><path class="cls-3" d="m226.01,370.54h-31.66v-.07c-.91-15.45-1.37-28.73-.92-35.1.1-1.46.25-2.56.47-3.24.72-2.36,2.03-4.32,3.67-5.77,5.7-5.08,15.55-4.27,20.42,5.77,1.01,2.06,2.11,6.18,3.29,11.65.6,2.77,1.21,5.87,1.83,9.25.97,5.3,1.94,11.25,2.92,17.5Z"/><path class="cls-3" d="m177.69,183.85s21.77,8.14,29.72,16.24c7.95,8.1,13.62,18.67,12.41,56.73-1.22,38.06,4.38,87.08.16,91.94s-28.93-8.1-28.93-20.25-1.62-91.15-2.43-108.16c-.81-17.01-10.94-36.49-10.94-36.49Z"/><path class="cls-4" d="m124.72,179.51l-34.54-13.62v36.91h9.08l31.38,112.3,24.47,22.5,4.14-143.49,6.51-4.54-6.51-15.39s-4.14-3.16-9.87-2.17c-5.72.99-13.22,5.53-18.95,6.51l-5.72.99Z"/><path class="cls-8" d="m127.98,179.91s-3.42,5.81-5.11,10.48c-1.7,4.67-2.27,8.64-1.84,9.77s9.77,7.93,9.77,7.93l-2.81,97.48,2.66,9.54,24.47,22.5,1.97-68.36-12.46-60.83s4.52-14.68,3.53-18.92-4.23-8.33-5.93-10.31-4.15-3.16-4.15-3.16l-9.67,2.84-.43,1.04Z"/><path class="cls-2" d="m308.89,229.31s9.22-26.38,9.76-26.68,3.08.27,3.88,1.06.6,1.4.6,1.4l-8.88,25.11-5.36-.9Z"/><path class="cls-1" d="m336.07,239.93s-.62-2.52-6.24-5.48c-5.61-2.97-14.42-6.03-20.99-6.52-6.58-.5-8.48-.53-9.69,1.21-1.21,1.74-8.61,21.81-9.76,27.88-1.15,6.08,1.48,14.23.64,17.23s-13.16,39.02-13.93,41.06c-.77,2.04-2.04,4.94.26,6.87,2.29,1.93,12.14,7.13,20.14,5.99,8-1.14,5.96-1.83,7.98-7.19,2.02-5.37,12.58-36.73,13.27-38.13.69-1.4,6.27-5.09,9.15-10.28,2.88-5.19,6.15-16.85,8.17-22.11,2.03-5.26,2.39-6.97,1.69-8.74l-.7-1.77Z"/><path class="cls-2" d="m283.66,325.71s8.2,3.41,12.84,2.44c4.64-.97,3.44-.39,4.67-3.1,1.23-2.7,13.25-40.83,14.41-42.57,1.16-1.74,1.74-3.31,3.44-4.75,1.7-1.44,5.26-5.72,6.75-8.49,1.49-2.77,1.32-3.18,2.33-3.12,1.01.07,1.68-.11.93,1.72-.75,1.83-2.18,5.68-4.48,8.27-2.3,2.59-6.19,6.76-6.64,7.98s-12.67,38.44-12.67,38.44c0,0-.6,2.37-.89,3.15s-.59,2.17-2.04,2.79-4.02,1.53-6.83,1.49-6.55-.8-9.8-2.37c-3.25-1.57-8.01-4.45-8.01-4.45l5.98,2.55Z"/><rect class="cls-2" x="300.03" y="239.31" width="22.21" height="16.67" rx="1.89" ry="1.89" transform="translate(87.21 -80.98) rotate(17.21)"/><path class="cls-5" d="m291.9,282.21c-.61.68-1.49-.22-1.57-.53-.2-.77-.39-1.31-.28-1.88.16-.81.94-1.69,3.18-3.4,3.8-2.91,7.23-10.75,5.07-10.09-1.75.53-7.21,4.62-11.35,9.66-.98,1.2-1.89,2.45-2.66,3.72-4.01,6.62-15.99,14.71-15.99,14.71l11.59,14.65s13.56-5.09,25.03-10.27c0,0,16.07-10.54,17.15-15.6,1.07-5.06.01-12.58-1.48-13.87-1.49-1.29-7.4-2.49-9.54-1.12-2.14,1.37-7.71,6.71-9.47,9.36-1.76,2.64-9.68,4.66-9.68,4.66Z"/><path class="cls-7" d="m140.73,170.34c13.34,7.24,11.4-3.83,11.4-3.83l-.8-14.08-43.05-12.76s9.13,18.01,32.45,30.68Z"/><path class="cls-5" d="m105.14,121.25l5.19,21.18s31.59,16.15,42.72,16.15,16.51-1.08,17.95-5.38c1.44-4.31,4.4-33.75,6.69-39.13,2.29-5.38,4.08.72,5.16-24.05,1.08-24.77,7.54-30.51,0-39.85-7.54-9.33-46.67-19.39-58.88-9.69-12.21,9.69-18.83,35.54-18.83,35.54,0,0-4.5-3.59-12.4,2.51-7.9,6.1-4.67,20.82,0,26.92,4.67,6.1,12.4,11.49,12.4,11.49v4.31Z"/><path d="m137.2,43.98s-9.17,11.62-14.98,22.4c-5.81,10.79-14.38,33.47-14.38,33.47,0,0-2.74-18.81-7.47-21.02-4.73-2.21-7.64-.29-7.64-.29,0,0-2.8-10.77-2.56-21.83.24-11.06,2.45-33.74,11.3-43.7,8.85-9.96,29.32-10.23,46.74-7.19,17.42,3.04,24.89,9.4,34.02,5.26,9.13-4.15,10.51-11.06,10.51-11.06,0,0,5.26,9.13,9.68,21.02,4.43,11.89,8.3,19.08,1.11,28.9-7.19,9.82-20.04,31.29-20.04,31.29,0,0,2.89-16.21-3.75-19.26-6.64-3.04-18.25,0-24.34-7.47-6.08-7.47-18.21-10.51-18.21-10.51Z"/></g></svg>