<?xml version="1.0" encoding="UTF-8"?><svg id="Layer_2" xmlns="http://www.w3.org/2000/svg" viewBox="0 0 320.81 365.67"><defs><style>.cls-1{fill:#65d270;}.cls-2{fill:#fff;}.cls-3{fill:#ffce93;}.cls-4{fill:#ff8f48;}.cls-5{fill:#9d8060;}.cls-6{fill:#133532;}.cls-7{fill:#a2a2a2;}</style></defs><g id="Layer_1-2"><rect class="cls-4" y="44.86" width="320.81" height="320.81" rx="30" ry="30"/><path class="cls-2" d="m263.01,209.38c.85-.34,1.46-.63,1.74-.83,1.68-1.19.43-4.41-1.55-10.5-1.99-6.11-4-8.95-4-8.95l-4.27-22.69c-.52-2.82-3.02-4.83-5.8-4.83-.36,0-.72.04-1.1.11-3.2.6-5.33,3.71-4.74,6.91l5.26,28.06c-.43-1.99-1.21-5.21-1.9-5.86-.99-.92-1.07,2.06-2.28,6.4-1.19,4.32-2.89,4.39-5.73,6.11-1.68,1.03-5.26,2.12-7.92,2.86-.09-1.7-.16-2.86-.16-2.86,0,0-23.65.13-48.29.36-.42-3.74-.72-6.85-.9-8.77.14-.16.25-.34.34-.52,1.12-2.44,1.77-38.29,1.48-51.09-.29-12-3.78-22.31-4.21-23.56-.02-.04-.04-.09-.04-.13l-.02-.02c-.6-2.19-1.68-2.5-1.68-2.5,0,0,1.5-1.28-13.41-9.58-11.75-6.54-12.13-8.86-20.9-9.65v-3.2c.33-.78.23-1.7.16-2.13,3.58-1.93,7.12-5.04,8.8-7.29,3.07-4.07,5.51-15.1,6.74-24.88.42-3.42.63-7.67.69-12.11,1.01,1.75,1.63,2.73,1.63,2.73,0,0,.6-2.26,1.3-5.59h-60.18c-.13,3.09,1.27,5.62,1.57,8.79.23,2.51,1.07,4.34,1.95,5.59.42,2.08.72,3.63.83,4.36.58,3.65,1.74,2.49,1.74,2.49l2.68-2.62c.43,2.68,1.64,10.2,2.55,14.43l-4.16,17.28c-2.17.14-4.39.65-7.18,1.79-4.1,1.66-8.41,3.43-12.28,5.62-.02.02-.04.02-.05.02-5.17,1.74-16.2,6.18-22.56,14.26-8.5,10.81.13,29.99,7.72,44.46,2.22,4.23,5.53,10.85,9.31,18.3.25,2.91.4,5.64.4,8.1,0,21.3,1.07,60.49-4.27,77.76-2.89,9.33-4.21,16.9-4.07,22.27v.04c-1.05,8.35.07,21.44-1.03,47.28-.54,12.58.27,22.27,1.5,30.08h49.72c.58-4.27,1.5-9,2.6-13.97,3.06,4.3,6.49,9.13,9.89,13.97h43.97c-.67-2.24-1.34-4.63-2.03-7.21,2.21.09,4.57.14,7.05.14,11.35,0,20.55-1.07,20.55-2.37l7.03-57.44c0-.69-1.43-1.34-3.92-1.9-.65-12.82-9.08-22.18-18.96-24.7.13-1.39.11-2.75-.14-3.69-.67-2.42-4.63-10.77-5.78-13.22,1.01-.61,1.9-1.23,2.57-1.83,3.54-3.18.72-5.39-2.46-19.24-.38-1.68-.76-3.58-1.12-5.6,14.66-2.22,27.26-4.3,30.5-5.04,7.95-1.86,15.22-3.13,15.22-4.01,0-.25-.07-1.55-.16-3.34,3.72.22,8.91-.05,12.78-.94,1.88-.45,4.7-1.23,7.65-2.12l28.67,152.49h12.04l-29.38-156.29Zm-54.05,87.03c-5.19-.81-12.96-1.34-21.66-1.34-5.12,0-9.89.18-14.01.49,1.08-2.13,1.68-7.36,1.88-13.76,1.3-1.28,2.69-2.42,4.07-3.36.47.34,1.01.63,1.66.83,3.33.99,10.92-1.45,10.92-1.45,0,0,.11-.54.27-1.37,6.78,2.86,15.82,10.59,16.87,19.96Zm-31.42-35.51c.09,3.38-.96,7.88-1.54,9.2-.14.34-.43.9-.8,1.55-.09-4.18-.29-8.44-.6-12.42.87-.02,1.79-.13,2.77-.33.07.69.14,1.36.16,1.99Z"/><path class="cls-6" d="m292.38,365.67h-12.04l-28.67-152.49-2.82-14.97s-.13-.67-.31-1.55l-5.26-28.06c-.6-3.2,1.54-6.31,4.74-6.91.38-.07.74-.11,1.1-.11,2.78,0,5.28,2.01,5.8,4.83l4.27,22.69,3.81,20.28,29.38,156.29Z"/><path class="cls-3" d="m264.74,208.55c-.27.2-.89.49-1.74.83-2.49.99-7.07,2.51-11.34,3.8-2.95.89-5.77,1.66-7.65,2.12-3.87.89-9.06,1.16-12.78.94-1.61-.09-2.93-.27-3.76-.52-2.77-.85-9.08.29-8.51-2.55.58-2.84,8.51-6.18,8.51-6.18,0,0,1.39-.33,3.24-.81,2.66-.74,6.24-1.83,7.92-2.86,2.84-1.72,4.54-1.79,5.73-6.11,1.21-4.34,1.28-7.32,2.28-6.4.69.65,1.47,3.87,1.9,5.86.18.89.31,1.54.31,1.55.2,0,10.21-3.8,10.21-5.62s.13-3.49.13-3.49c0,0,2.01,2.84,4,8.95,1.99,6.09,3.24,9.31,1.55,10.5Z"/><path class="cls-1" d="m211.59,296.9c-.65-12.82-9.08-22.18-18.96-24.7-1.75-.45-3.54-.69-5.33-.69-3.43,0-7.09,1.16-10.45,3.25-.54.33-1.07.67-1.59,1.05-3.51,2.59-6.6,6.22-8.64,10.65-1.43,3.06-2.35,6.47-2.57,10.21-.04.43-.05.87-.05,1.32h3.54c.02-.63.05-1.27.13-1.88.36-3.15,1.5-6.11,3.11-8.75,1.23-2.08,2.75-3.94,4.39-5.57,1.3-1.28,2.69-2.42,4.07-3.36,2.95-2.02,5.89-3.18,8.06-3.18,1.3,0,2.97.42,4.79,1.19,6.78,2.86,15.82,10.59,16.87,19.96.07.52.11,1.05.11,1.59h2.57c0-.38-.02-.74-.04-1.1Z"/><path class="cls-1" d="m215.51,298.8c0,2.06-12.64,3.72-28.22,3.72-5.69,0-11.01-.22-15.44-.61-4.83-.4-8.61-1.01-10.77-1.72-1.12-.38-1.81-.78-1.97-1.19l-.04-.2c0-.78,1.84-1.52,4.97-2.12,1.07-.2,2.28-.4,3.62-.56,1.16-.14,2.4-.29,3.72-.4.62-.05,1.23-.11,1.88-.16h.02c4.12-.31,8.89-.49,14.01-.49,8.7,0,16.47.52,21.66,1.34.98.14,1.86.31,2.64.49,2.49.56,3.92,1.21,3.92,1.9Z"/><path class="cls-1" d="m208.48,356.23c0,1.3-9.2,2.37-20.55,2.37-2.48,0-4.85-.05-7.05-.14-7.88-.33-13.52-1.21-13.52-2.22s5.1-1.81,12.38-2.15c2.51-.14,5.28-.22,8.19-.22,11.35,0,20.55,1.07,20.55,2.37Z"/><polygon class="cls-1" points="215.51 298.8 208.48 356.23 167.35 356.23 159.32 300.55 159.11 299 159.07 298.8 215.51 298.8"/><path class="cls-3" d="m192.62,272.2c-.11,1.55-.34,3.16-.54,4.25-.16.83-.27,1.37-.27,1.37,0,0-7.59,2.44-10.92,1.45-.65-.2-1.19-.49-1.66-.83-1.65-1.25-2.24-3.15-2.39-3.67-.02-.09-.04-.14-.04-.14,0,0-.23.05.23-1.1.47-1.16.34-1.59.34-1.59,0,0-.18.56-.78,1.9-.31.7-.8,1.34-1.36,1.88-.51.49-1.05.89-1.57,1.19-1.08.63-1.64.76-1.37-.02.2-.6,1.83-3.31,2.89-5.21v-.02c.36-.65.65-1.21.8-1.55.58-1.32,1.63-5.82,1.54-9.2-.02-.63-.09-1.3-.16-1.99-.34-2.89-.99-5.95.33-7.83,1.63-2.31,4.41-4.01,6.04-2.28,1.65,1.75,2.64,5.82,2.64,5.82,0,0,.13.25.33.67,1.16,2.44,5.12,10.79,5.78,13.22.25.94.27,2.3.14,3.69Z"/><path class="cls-7" d="m172.7,203.76c-.14,9.73-.14,19.02-.02,26.81.14,8.86.45,15.78.94,19.24.4,2.77.72,6,.98,9.44.31,3.98.51,8.24.6,12.42v.02c.04,1.36.05,2.71.05,4.03v.11c0,2.06-.02,4.07-.09,5.98-.2,6.4-.8,11.62-1.88,13.76h-.02c-.22.43-.45.74-.7.9-.31.2-.67.4-1.08.6-1.12.56-2.68,1.14-4.72,1.74-1.57.45-3.45.92-5.68,1.39-.56.13-1.14.24-1.75.36-4.27.83-9.65,1.7-16.36,2.53-3.47.43-7.3.85-11.52,1.27-7.79.76-15.1.61-21.66-.04-15.51-1.5-26.81-5.79-30.1-7.43-2.15-1.08-3.33-4.03-3.44-8.57v-.04c-.14-5.37,1.18-12.94,4.07-22.27,5.33-17.27,4.27-56.46,4.27-77.76,0-2.46-.14-5.19-.4-8.1-1.92-22.36-10.05-55.85-6.85-64.34,2.13-5.64,6.83-9.56,12.38-12.67.02,0,.04,0,.05-.02,3.87-2.19,8.17-3.96,12.28-5.62,2.78-1.14,5.01-1.65,7.18-1.79,5.6-.4,10.83,1.63,24.35,1.79,4,.05,6.98.14,9.35.36,8.77.8,9.15,3.11,20.9,9.65,14.91,8.3,13.41,9.58,13.41,9.58,0,0,1.08.31,1.68,2.5l.02.02s.02.09.04.13c.63,2.42.69,7-1.68,15.67-2.04,7.5-3.42,27.68-4.12,49.17-.14,4.09-.25,8.23-.34,12.33-.04,2.3-.09,4.59-.13,6.85Z"/><path class="cls-3" d="m142.93,86.14v11.73s-7.95,4.41-14.37,4.41-19.54-5.68-19.54-5.68l.22-.9,4.16-17.28.18-.74v-.04l.36-1.46s5.68-8.7,12.04-2.64c3.69,3.51,8.82,7.2,12.46,9.67,1.68,1.12,3.04,2.01,3.8,2.48.45.29.71.45.71.45Z"/><path class="cls-5" d="m142.93,94.65c-.56,1.32-2.26,2.28-7.16.14-4.83-2.12-8.79-4.56-11.97-6.92-6.78-5.06-9.96-9.78-10.23-10.2-.02-.02-.02-.04-.02-.04h.02l24.86,5.57,3.58.8.22,1.68.71,5.69.11.87s.02.11.05.27c.07.43.16,1.36-.16,2.13Z"/><path class="cls-6" d="m137.43,2.29l-3.22,10.83-3.31,11.12-5.37,18.1-1.95,3.06-10.43,16.33-2.31,2.26v.02l-2.68,2.62s-1.16,1.16-1.74-2.49c-.11-.72-.42-2.28-.83-4.36-.74-3.76-1.84-9.22-2.82-14.37-.13-.72-.27-1.43-.4-2.13v-.02c-1.01-5.51-1.77-10.32-1.61-11.77.38-3.63,6.42-18.33,11.99-23.99,1.7-1.72,4.66-2.87,7.95-3.65,7.5-1.77,16.72-1.54,16.72-1.54Z"/><path class="cls-3" d="m159.34,45.39c0,.96,0,1.92-.02,2.86-.05,4.45-.27,8.7-.69,12.11-1.23,9.78-3.67,20.81-6.74,24.88-1.68,2.24-5.22,5.35-8.8,7.29-.05.04-.11.07-.16.07-2.89,1.55-5.79,2.3-7.76,1.21-2.15-1.18-6.89-3.49-11.37-5.93-4.81-2.62-9.31-5.42-9.83-7.12-.16-.52-.36-1.34-.58-2.33-.9-4.23-2.12-11.75-2.55-14.43v-.02c-.09-.6-.14-.96-.14-.96,0,0-2.21-.67-3.13-1.25-.43-.27-1.23-.9-1.97-2.01-.89-1.25-1.72-3.07-1.95-5.59-.31-3.16-1.7-5.7-1.57-8.79.02-.69.11-1.39.31-2.13v-.02c.25-.94.65-1.93,1.27-3.02,2.12-3.71,5.93-4.72,8.44-4.95,1.46-.13,2.49,0,2.49,0,0,0,6.92-19.99,16.31-21.82,1.01-.2,2.13-.31,3.33-.33,9.71-.13,23.88,5.68,24.42,12.76.36,4.59.71,12.09.71,19.51Z"/><path class="cls-6" d="m164.1,33.69c-.38,4.14-1.16,8.42-1.84,11.7-.71,3.33-1.3,5.59-1.3,5.59,0,0-.61-.98-1.63-2.73-.47-.8-1.01-1.75-1.61-2.86-1.81-3.29-4.18-7.85-6.47-13.2-4.79-11.1-7.7-9.58-7.7-9.58l-2.01,1.14s-1.01-1.27-2.91-2.03c-1.36-.54-3.94-.23-7.72,2.51-1.46,1.07-3.11,2.51-4.94,4.43-4.72,4.94-8.21,12.78-9.74,16.72-.61,1.5-.92,2.42-.92,2.42,0,0-.31-.96-.72-2.42-.78-2.66-1.95-6.96-2.49-10.12-.2-1.07-.31-1.99-.31-2.69,0-3.9-1.01-18.91,4.41-25.22,1.19-1.39,2.75-2.57,4.52-3.53,6.16-3.38,14.95-4.25,20.45-3.65,7.05.74,7.05,3.9,7.05,3.9,0,0,10.72-2.53,15.89,6.67,5.17,9.2.76,14.63,0,22.94Z"/><path class="cls-7" d="m134.23,233.9c-3.72,1.25-6.69,2.01-9.49,1.84-.29-.02-.54-.05-.8-.09-.14-.02-.27-.04-.42-.05-.04-.02-.09-.02-.13-.04-3.54-.61-7.05-2.93-11.79-7.86-6.4-6.65-18.31-29.56-27.43-47.55-3.78-7.45-7.09-14.07-9.31-18.3-7.59-14.46-16.22-33.64-7.72-44.46,6.36-8.08,17.39-12.53,22.56-14.26.02,0,.04,0,.05-.02,1.72-.56,2.77-.83,2.77-.83,0,0,4.77,4.95.8,9.29-3.98,4.34.72,16.99,2.71,25.85,1.72,7.7,27.14,49.39,37.5,66.95,1.59,2.69,2.82,4.81,3.56,6.15,5.62,10.12,6.76,20.18-2.87,23.38Z"/><path class="cls-7" d="m231.4,219.58c0,.89-7.27,2.15-15.22,4.01-3.24.74-15.84,2.82-30.5,5.04-4.21.65-8.62,1.3-13,1.93-2.55.38-5.12.76-7.63,1.12-15.02,2.12-28.74,3.87-33.7,4.07-3.51.14-5.86.13-7.41-.11-.14,0-.29-.04-.42-.05-.04-.02-.09-.02-.13-.04-3.24-.65-2.48-2.51-2.87-6.38-.56-5.75,1.54-23.66,7.27-24.51.69-.11,2.71-.2,5.75-.29,6.38-.2,17.25-.36,29.45-.51,3.16-.04,6.42-.07,9.71-.11,3.16-.04,6.38-.07,9.56-.09,24.64-.24,48.29-.36,48.29-.36,0,0,.07,1.16.16,2.86.14,2.8.38,7.09.52,10.07.09,1.79.16,3.09.16,3.34Z"/><path class="cls-7" d="m181.71,194.38c-.09.18-.2.36-.34.52-1.3,1.57-4.92,2.1-8.53,2.01-.98-.02-1.95-.07-2.89-.18-2.97-.31-4.45-4.39-5.06-10.12v-.02c-.38-3.51-.43-7.63-.33-11.9.31-11.23-5.21-47.37-3.56-52.37,1.63-4.99,7.56-7.65,7.56-7.65h3.42c3.29,0,6.69,4.54,6.96,4.92l.02.02s.02.09.04.13c.43,1.25,3.92,11.55,4.21,23.56.29,12.8-.36,48.65-1.48,51.09Z"/><path class="cls-7" d="m189.26,253.47c-.67.6-1.55,1.21-2.57,1.83-2.62,1.55-6.17,3-9.33,3.62-.98.2-1.9.31-2.77.33-.99.02-1.9-.11-2.64-.38-3.15-1.17-5.3-14.5-6.91-27.17-.56-4.48-1.07-8.89-1.52-12.64-.58-4.88-.71-10.21-.54-15.19.23-7.39,1.08-14.03,1.88-17.26v-.02c.23-.96.45-1.63.67-1.92.81-1.14,4.38-.89,7.63-.09,2.37.58,4.57,1.45,5.46,2.31,2.13,2.04,2.53,5.95,2.53,5.95,0,0,.07.74.2,2.06.18,1.92.49,5.03.9,8.77.8,7.36,2.01,17.14,3.42,24.97.36,2.02.74,3.92,1.12,5.6,3.18,13.85,6,16.05,2.46,19.24Z"/><path class="cls-7" d="m146.04,294.02s-1.23,3.47-3.07,9.06c-3.74,11.32-10.05,31.31-13.92,48.61-1.1,4.97-2.03,9.71-2.6,13.97h-49.72c-1.23-7.81-2.04-17.5-1.5-30.08,1.1-25.83-.02-38.92,1.03-47.28v-.04c.36-2.78.94-5.03,1.92-7.05,2.06-4.27,20.75-.49,38,4.05,15.53,4.07,29.87,8.75,29.87,8.75Z"/><path class="cls-7" d="m182.9,365.67h-43.97c-3.4-4.84-6.83-9.67-9.89-13.97-6.15-8.64-10.79-15.13-10.79-15.13,0,0-5.19-18.91-8.46-32.25-1.5-6.15-2.6-11.12-2.6-12.51,0-2.15,3.8-4.59,8.98-6.53,5.48-2.06,12.51-3.54,18.31-3.54,8.41,0,24.48,3.15,32.13,4.74,2.24.47,3.76.81,4.16.9.07.02.11.02.11.02,0,0,.14,3.16.51,8.33.04.43.07.87.09,1.34.05.56.09,1.14.14,1.74.07.98.14,2.03.24,3.11,1.14,13.56,3.38,34.15,7.48,50.64.13.52.25,1.03.4,1.54.18.72.36,1.45.54,2.15.2.76.4,1.5.6,2.22.69,2.59,1.36,4.97,2.03,7.21Z"/></g></svg>